<mxfile host="app.diagrams.net" agent="Mozilla/5.0 (Windows NT 10.0; Win64; x64) AppleWebKit/537.36 (KHTML, like Gecko) Chrome/138.0.0.0 Safari/537.36" version="28.0.7">
  <diagram name="Page-1" id="M-dZSB3SSrhrZW6_9cC6">
    <mxGraphModel dx="1042" dy="561" grid="1" gridSize="10" guides="1" tooltips="1" connect="1" arrows="1" fold="1" page="1" pageScale="1" pageWidth="850" pageHeight="1100" math="0" shadow="0">
      <root>
        <mxCell id="0" />
        <mxCell id="1" parent="0" />
        <mxCell id="ni0vSMo-rKDW0dAVmCEp-1" value="" style="rounded=0;whiteSpace=wrap;html=1;fillColor=#dae8fc;gradientColor=#7ea6e0;strokeColor=#6c8ebf;" parent="1" vertex="1">
          <mxGeometry x="120" y="160" width="140" height="80" as="geometry" />
        </mxCell>
        <mxCell id="ni0vSMo-rKDW0dAVmCEp-2" value="" style="rounded=0;whiteSpace=wrap;html=1;fillColor=#f8cecc;gradientColor=#ea6b66;strokeColor=#b85450;" parent="1" vertex="1">
          <mxGeometry x="320" y="160" width="140" height="80" as="geometry" />
        </mxCell>
        <mxCell id="ni0vSMo-rKDW0dAVmCEp-3" value="" style="rounded=0;whiteSpace=wrap;html=1;" parent="1" vertex="1">
          <mxGeometry x="520" y="160" width="140" height="80" as="geometry" />
        </mxCell>
        <mxCell id="ni0vSMo-rKDW0dAVmCEp-4" value="&lt;b&gt;cart&lt;/b&gt;" style="ellipse;whiteSpace=wrap;html=1;aspect=fixed;" parent="1" vertex="1">
          <mxGeometry x="130" y="175" width="35" height="35" as="geometry" />
        </mxCell>
        <mxCell id="ni0vSMo-rKDW0dAVmCEp-5" value="&lt;b&gt;solr&lt;/b&gt;" style="ellipse;whiteSpace=wrap;html=1;aspect=fixed;direction=south;" parent="1" vertex="1">
          <mxGeometry x="175" y="200" width="35" height="35" as="geometry" />
        </mxCell>
        <mxCell id="ni0vSMo-rKDW0dAVmCEp-6" value="" style="ellipse;whiteSpace=wrap;html=1;aspect=fixed;" parent="1" vertex="1">
          <mxGeometry x="210" y="170" width="35" height="35" as="geometry" />
        </mxCell>
        <mxCell id="ni0vSMo-rKDW0dAVmCEp-7" value="&lt;b&gt;solr&lt;/b&gt;" style="ellipse;whiteSpace=wrap;html=1;aspect=fixed;fillColor=#dae8fc;gradientColor=#7ea6e0;strokeColor=#6c8ebf;" parent="1" vertex="1">
          <mxGeometry x="330" y="175" width="35" height="35" as="geometry" />
        </mxCell>
        <mxCell id="ni0vSMo-rKDW0dAVmCEp-8" value="&lt;b&gt;solr&lt;/b&gt;" style="ellipse;whiteSpace=wrap;html=1;aspect=fixed;fillColor=#dae8fc;gradientColor=#7ea6e0;strokeColor=#6c8ebf;" parent="1" vertex="1">
          <mxGeometry x="380" y="200" width="35" height="35" as="geometry" />
        </mxCell>
        <mxCell id="ni0vSMo-rKDW0dAVmCEp-9" value="&lt;b&gt;solr&lt;/b&gt;" style="ellipse;whiteSpace=wrap;html=1;aspect=fixed;fillColor=#dae8fc;gradientColor=#7ea6e0;strokeColor=#6c8ebf;" parent="1" vertex="1">
          <mxGeometry x="415" y="170" width="35" height="35" as="geometry" />
        </mxCell>
        <mxCell id="ni0vSMo-rKDW0dAVmCEp-10" value="" style="ellipse;whiteSpace=wrap;html=1;aspect=fixed;" parent="1" vertex="1">
          <mxGeometry x="530" y="165" width="35" height="35" as="geometry" />
        </mxCell>
        <mxCell id="ni0vSMo-rKDW0dAVmCEp-11" value="" style="ellipse;whiteSpace=wrap;html=1;aspect=fixed;" parent="1" vertex="1">
          <mxGeometry x="572.5" y="200" width="35" height="35" as="geometry" />
        </mxCell>
        <mxCell id="ni0vSMo-rKDW0dAVmCEp-12" value="" style="ellipse;whiteSpace=wrap;html=1;aspect=fixed;" parent="1" vertex="1">
          <mxGeometry x="620" y="175" width="35" height="35" as="geometry" />
        </mxCell>
        <mxCell id="ni0vSMo-rKDW0dAVmCEp-14" style="edgeStyle=orthogonalEdgeStyle;rounded=0;orthogonalLoop=1;jettySize=auto;html=1;" parent="1" source="ni0vSMo-rKDW0dAVmCEp-13" target="ni0vSMo-rKDW0dAVmCEp-1" edge="1">
          <mxGeometry relative="1" as="geometry" />
        </mxCell>
        <mxCell id="ni0vSMo-rKDW0dAVmCEp-15" style="edgeStyle=orthogonalEdgeStyle;rounded=0;orthogonalLoop=1;jettySize=auto;html=1;entryX=0.5;entryY=0;entryDx=0;entryDy=0;" parent="1" source="ni0vSMo-rKDW0dAVmCEp-13" target="ni0vSMo-rKDW0dAVmCEp-2" edge="1">
          <mxGeometry relative="1" as="geometry" />
        </mxCell>
        <mxCell id="ni0vSMo-rKDW0dAVmCEp-13" value="&lt;b&gt;Overlay N/W&lt;/b&gt;" style="rounded=0;whiteSpace=wrap;html=1;" parent="1" vertex="1">
          <mxGeometry x="330" y="10" width="120" height="60" as="geometry" />
        </mxCell>
        <mxCell id="ni0vSMo-rKDW0dAVmCEp-16" style="edgeStyle=orthogonalEdgeStyle;rounded=0;orthogonalLoop=1;jettySize=auto;html=1;entryX=0.571;entryY=0;entryDx=0;entryDy=0;entryPerimeter=0;" parent="1" source="ni0vSMo-rKDW0dAVmCEp-13" target="ni0vSMo-rKDW0dAVmCEp-3" edge="1">
          <mxGeometry relative="1" as="geometry" />
        </mxCell>
        <mxCell id="oBPPAYvQYWG3OcARVBhn-1" value="&lt;b&gt;taint node&lt;/b&gt;&lt;div&gt;&lt;b&gt;apply tolerations solr manifest&lt;/b&gt;&lt;/div&gt;" style="text;html=1;align=center;verticalAlign=middle;resizable=0;points=[];autosize=1;strokeColor=none;fillColor=none;" vertex="1" parent="1">
          <mxGeometry x="300" y="243" width="200" height="40" as="geometry" />
        </mxCell>
      </root>
    </mxGraphModel>
  </diagram>
</mxfile>
